<?xml version="1.0" standalone="no"?>
<!DOCTYPE svg PUBLIC "-//W3C//DTD SVG 1.1//EN" "http://www.w3.org/Graphics/SVG/1.1/DTD/svg11.dtd" >
<svg xmlns="http://www.w3.org/2000/svg" xmlns:xlink="http://www.w3.org/1999/xlink" version="1.1">
<metadata></metadata>
<defs>
<font id="adzongyi-a00fzzongyim05sarial" horiz-adv-x="2048" vert-adv-y="2048" >
<font-face units-per-em="2048" ascent="1632" descent="-416" />
<missing-glyph horiz-adv-x="568" />
<glyph horiz-adv-x="0" vert-adv-y="0" />
<glyph horiz-adv-x="682" />
<glyph unicode=" "  horiz-adv-x="568" />
<glyph unicode="&#x09;" horiz-adv-x="568" />
<glyph unicode="&#xa0;" horiz-adv-x="568" />
<glyph unicode="!" horiz-adv-x="680" d="M224 1264h224l-56 -1064h-120zM232 88h208v-208h-208v208z" />
<glyph unicode="&#x22;" horiz-adv-x="608" d="M72 1304h200l-32 -432h-136zM336 1304h200l-24 -432h-144z" />
<glyph unicode="#" horiz-adv-x="1400" d="M168 232l24 176h168l56 368h-152l24 176h152l48 312h168l-40 -312h264l48 312h168l-48 -312h176l-24 -176h-176l-48 -368h152l-24 -176h-160l-40 -304h-176l48 304h-264l-48 -304h-176l48 304h-168zM536 408h264l56 368h-264z" />
<glyph unicode="$" horiz-adv-x="1400" d="M104 912q0 192 152 288q120 64 272 64h80v136h176v-136h448v-168h-448v-376h64q176 0 288 -80q152 -96 152 -296q0 -424 -456 -424h-48v-136h-176v136h-472v176h472v448h-56q-184 0 -304 88q-144 96 -144 280zM272 912q0 -88 72 -144q72 -48 208 -48h56v376h-80 q-256 0 -256 -184zM784 96h48q136 0 200 40q80 56 80 208q0 200 -264 200h-64v-448z" />
<glyph unicode="%" horiz-adv-x="1560" d="M56 952q0 144 80 240q80 112 216 112q144 0 224 -112q80 -96 80 -240t-80 -248q-80 -112 -224 -112q-136 0 -216 112q-80 104 -80 248zM208 952q0 -80 40 -144q32 -64 104 -64t112 64t40 144t-40 136q-40 64 -112 64t-112 -64q-32 -56 -32 -136zM344 -40l712 1344 l152 -80l-712 -1344zM896 240q0 136 72 240q88 112 224 112q144 0 224 -112q80 -104 80 -240q0 -152 -80 -248q-80 -112 -224 -112q-136 0 -224 112q-72 96 -72 248zM1048 240q0 -88 32 -144q40 -64 112 -64t112 64q40 56 40 144q0 80 -40 136q-40 64 -112 64t-104 -64 q-40 -56 -40 -136z" />
<glyph unicode="&#x26;" horiz-adv-x="1384" d="M120 320q0 128 88 232q56 72 192 168q-144 160 -144 288q0 120 96 192q80 72 208 72q120 0 208 -64q96 -72 96 -192q0 -160 -208 -328l296 -320q64 144 64 432h168q0 -352 -104 -568l264 -288h-240l-128 144q-176 -160 -384 -160q-200 0 -328 96q-144 104 -144 296z M296 328q0 -112 88 -176q80 -64 200 -64q152 0 280 128l-352 376q-216 -144 -216 -264zM432 984q0 -40 112 -168q152 104 152 168q0 56 -48 88q-40 32 -80 32q-136 0 -136 -120z" />
<glyph unicode="'" horiz-adv-x="344" d="M72 1304h200l-32 -432h-136z" />
<glyph unicode="(" horiz-adv-x="528" d="M64 600q0 224 64 448t184 392h176q-120 -168 -184 -392q-72 -224 -72 -448q0 -232 64 -448q72 -232 192 -400h-176q-120 168 -184 400q-64 216 -64 448z" />
<glyph unicode=")" horiz-adv-x="528" d="M64 -248q120 168 184 400q64 216 64 448q0 224 -64 448t-184 392h168q120 -168 184 -392q72 -224 72 -448q0 -232 -64 -448q-72 -232 -192 -400h-168z" />
<glyph unicode="*" horiz-adv-x="1040" d="M56 704l312 152l-312 160l88 168l296 -200l-24 320h192l-24 -320l296 200l88 -176l-312 -152l320 -152l-96 -168l-296 200l24 -328h-192l24 328l-288 -208z" />
<glyph unicode="+" horiz-adv-x="1072" d="M56 312v168h384v392h176v-392h392v-168h-392v-392h-176v392h-384z" />
<glyph unicode="," horiz-adv-x="696" d="M200 -272q120 56 144 152h-120v240h240v-192q0 -104 -48 -176q-48 -64 -152 -136z" />
<glyph unicode="-" horiz-adv-x="680" d="M80 312v168h512v-168h-512z" />
<glyph unicode="." horiz-adv-x="696" d="M224 -120v240h240v-240h-240z" />
<glyph unicode="/" horiz-adv-x="568" d="M16 -216l376 1664l160 -40l-368 -1664z" />
<glyph unicode="0" horiz-adv-x="1400" d="M56 592q0 296 192 504q184 208 456 208q264 0 456 -208q184 -208 184 -504t-184 -504q-192 -208 -456 -208q-272 0 -456 208q-192 208 -192 504zM248 592q0 -216 136 -368t320 -152t320 152t136 368t-136 368q-136 160 -320 160t-320 -160q-136 -152 -136 -368z" />
<glyph unicode="1" horiz-adv-x="1400" d="M600 -80v1344h192v-1344h-192z" />
<glyph unicode="2" horiz-adv-x="1400" d="M136 -80v384q0 416 416 416h280q248 0 248 192q0 64 -64 112t-160 48h-704v192h704q152 0 272 -80q144 -104 144 -272q0 -200 -136 -296q-112 -88 -304 -88h-280q-128 0 -176 -40q-48 -48 -48 -184v-192h928v-192h-1120z" />
<glyph unicode="3" horiz-adv-x="1400" d="M152 1072v192h672q152 0 256 -64q160 -88 160 -296q0 -200 -128 -296q144 -88 144 -296q0 -192 -136 -296q-120 -96 -296 -96h-648v192h640q240 0 240 200q0 208 -264 208h-608v192h632q232 0 232 192q0 168 -224 168h-672z" />
<glyph unicode="4" horiz-adv-x="1400" d="M40 192v160l808 912h288v-880h224v-192h-224v-272h-192v272h-904zM328 384h616v704z" />
<glyph unicode="5" horiz-adv-x="1400" d="M128 600v664h1088v-192h-896v-288h392q560 0 560 -440q0 -200 -152 -320q-144 -104 -376 -104h-600v192h600q168 0 264 72q80 64 80 160q0 152 -120 208q-88 48 -256 48h-584z" />
<glyph unicode="6" horiz-adv-x="1400" d="M88 640q0 248 160 432q168 192 416 192h552v-192h-552q-136 0 -240 -96t-128 -240h536q232 0 336 -80q136 -88 136 -312q0 -200 -168 -336q-168 -128 -424 -128q-272 0 -432 160q-192 200 -192 600zM288 544q32 -472 424 -472q192 0 304 88q96 80 96 184q0 112 -56 160 q-56 40 -224 40h-544z" />
<glyph unicode="7" horiz-adv-x="1400" d="M104 1072v192h1184v-168l-768 -1176h-224l752 1152h-944z" />
<glyph unicode="8" horiz-adv-x="1400" d="M56 304q0 208 168 312q-168 96 -168 312t216 312q160 64 400 64t400 -64q216 -96 216 -312q0 -200 -144 -296q192 -104 192 -328t-208 -336q-168 -88 -432 -88t-432 88q-208 112 -208 336zM240 928q0 -120 168 -176q112 -32 264 -32t264 32q160 56 160 176 q0 112 -160 168q-112 24 -264 24q-160 0 -264 -24q-168 -56 -168 -168zM256 312q0 -136 168 -200q120 -48 272 -48t264 48q176 64 176 200q0 232 -440 232t-440 -232z" />
<glyph unicode="9" horiz-adv-x="1400" d="M88 840q0 160 136 304q160 160 400 160q304 0 464 -112q216 -160 216 -528q0 -408 -176 -584q-152 -160 -472 -160h-472v192h472q216 0 328 88q88 80 120 248h-544q-240 0 -360 112q-112 96 -112 280zM272 840q0 -96 56 -144q64 -56 232 -56h552v24q0 272 -136 376 q-104 80 -352 80q-168 0 -264 -104q-88 -88 -88 -176z" />
<glyph unicode=":" horiz-adv-x="696" d="M224 -120v240h240v-240h-240zM224 400v240h240v-240h-240z" />
<glyph unicode=";" horiz-adv-x="696" d="M200 -272q120 56 144 152h-120v240h240v-192q0 -104 -48 -176q-48 -64 -152 -136zM224 400v240h240v-240h-240z" />
<glyph unicode="&#x3c;" horiz-adv-x="1072" d="M168 360v80l640 424l96 -144l-480 -320l480 -328l-96 -144z" />
<glyph unicode="=" horiz-adv-x="1072" d="M56 144v168h952v-168h-952zM56 480v176h952v-176h-952z" />
<glyph unicode="&#x3e;" horiz-adv-x="1072" d="M168 72l480 328l-480 320l96 144l640 -424v-80l-640 -432z" />
<glyph unicode="?" horiz-adv-x="832" d="M56 1048v176q128 40 272 40q184 0 304 -88q128 -96 128 -280q0 -112 -64 -200q-32 -48 -152 -160l-88 -88q-56 -56 -64 -96q-8 -24 -8 -80v-72h-176v128q0 96 128 232l192 192q56 72 56 144q0 192 -288 192q-96 0 -240 -40zM192 88h208v-208h-208v208z" />
<glyph unicode="@" horiz-adv-x="1464" d="M56 600q0 288 200 496q208 208 496 208q264 0 456 -160q192 -176 192 -440q0 -104 -40 -208q-56 -136 -160 -232q-120 -112 -248 -112q-104 0 -144 72q-96 -72 -224 -72q-120 0 -192 96q-64 80 -64 208q0 208 120 384q136 192 336 192q112 0 192 -96l16 56h152 q-136 168 -384 168q-232 0 -392 -168q-152 -176 -152 -408t152 -392q160 -168 392 -168q224 0 408 168q40 32 56 64h176q-32 -56 -80 -120q-216 -256 -560 -256q-304 0 -504 208t-200 512zM504 464q0 -168 112 -168q96 0 192 184q80 160 80 280q0 40 -32 88q-32 40 -72 40 q-112 0 -200 -160q-80 -136 -80 -264zM944 336q0 -32 32 -32q80 0 152 96q64 80 88 168q24 72 24 144q0 152 -88 264l-192 -568q-16 -48 -16 -72z" />
<glyph unicode="A" horiz-adv-x="1576" d="M56 -80l560 1344h144q104 0 160 -48q48 -40 96 -152l496 -1144h-208l-144 320h-768l-128 -320h-208zM472 432h608l-256 592q-24 56 -64 56h-16z" />
<glyph unicode="B" horiz-adv-x="1336" d="M56 -80v1344h776q160 0 272 -80q120 -96 120 -272q0 -168 -112 -272q152 -112 152 -312q0 -216 -160 -328q-128 -80 -304 -80h-744zM248 112h552q280 0 280 216q0 96 -72 152q-56 48 -136 48h-624v-416zM248 712h512q272 0 272 200q0 160 -200 160h-584v-360z" />
<glyph unicode="C" horiz-adv-x="1256" d="M56 592q0 672 632 672h504v-192h-504q-200 0 -296 -72q-152 -112 -152 -408t152 -400q96 -80 296 -80h504v-192h-504q-632 0 -632 672z" />
<glyph unicode="D" horiz-adv-x="1376" d="M56 -80v1344h616q632 0 632 -672t-632 -672h-616zM248 112h424q200 0 304 80q144 104 144 400t-144 408q-96 72 -304 72h-424v-960z" />
<glyph unicode="E" horiz-adv-x="1168" d="M56 496v768h1040v-192h-856v-368h808v-184h-808v-24q0 -224 80 -304q72 -80 272 -80h504v-192h-504q-296 0 -416 128q-120 136 -120 448z" />
<glyph unicode="F" horiz-adv-x="1168" d="M56 -80v1344h1048v-192h-864v-336h792v-192h-792v-624h-184z" />
<glyph unicode="G" horiz-adv-x="1296" d="M56 592q0 416 216 576q144 96 416 96h536v-192h-536q-208 0 -296 -56q-144 -112 -144 -424t144 -416q88 -64 296 -64h352v200q0 112 -40 160q-40 40 -144 40h-240v184h240q376 0 376 -384v-392h-544q-272 0 -416 104q-216 152 -216 568z" />
<glyph unicode="H" horiz-adv-x="1352" d="M112 -80v1344h192v-560h792v560h192v-1344h-192v592h-792v-592h-192z" />
<glyph unicode="I" horiz-adv-x="560" d="M184 -80v1344h192v-1344h-192z" />
<glyph unicode="J" horiz-adv-x="952" d="M16 -80v192h320q320 0 320 312v840h184v-856q0 -488 -504 -488h-320z" />
<glyph unicode="K" horiz-adv-x="1248" d="M56 -80v1344h184v-616l632 616h272l-672 -656l704 -688h-272l-664 632v-632h-184z" />
<glyph unicode="L" horiz-adv-x="1152" d="M56 424v840h184v-816q0 -176 72 -248q72 -88 256 -88h520v-192h-520q-272 0 -400 136q-112 120 -112 368z" />
<glyph unicode="M" horiz-adv-x="1576" d="M56 -80v1344h280l448 -1040l440 1040h288v-1344h-192v1080l-464 -1080h-152l-456 1080v-1080h-192z" />
<glyph unicode="N" horiz-adv-x="1240" d="M56 -80v1344h216l720 -1024v1024h184v-1344h-184l-744 1080v-1080h-192z" />
<glyph unicode="O" horiz-adv-x="1408" d="M56 592q0 296 184 504q192 208 456 208q272 0 456 -208q192 -208 192 -504t-192 -504q-184 -208 -456 -208q-264 0 -456 208q-184 208 -184 504zM240 592q0 -216 136 -368t328 -152q184 0 320 152q128 152 128 368t-128 368q-136 160 -320 160q-192 0 -328 -160 q-136 -152 -136 -368z" />
<glyph unicode="P" horiz-adv-x="1200" d="M56 -80v1344h624q152 0 280 -80q176 -120 176 -344t-176 -344q-128 -80 -280 -80h-440v-496h-184zM240 608h440q104 0 176 48q96 64 96 184t-96 184q-72 48 -176 48h-440v-464z" />
<glyph unicode="Q" horiz-adv-x="1408" d="M56 592q0 296 184 504q192 208 456 208q272 0 456 -208q192 -208 192 -504q0 -312 -208 -520h176v-192h-616q-264 0 -456 208q-184 208 -184 504zM240 592q0 -216 136 -368t328 -152q184 0 320 152q128 152 128 368t-128 368q-136 160 -320 160q-192 0 -328 -160 q-136 -152 -136 -368z" />
<glyph unicode="R" horiz-adv-x="1288" d="M56 -80v1344h704q168 0 280 -72q168 -104 168 -328q0 -264 -248 -360l264 -584h-208l-248 552h-528v-552h-184zM240 656h520q264 0 264 208t-264 208h-520v-416z" />
<glyph unicode="S" horiz-adv-x="1304" d="M56 904q0 200 160 296q112 64 272 64h696v-192h-696q-240 0 -240 -168q0 -80 64 -128q72 -48 200 -48h288q168 0 288 -80q152 -104 152 -304q0 -424 -464 -424h-688v192h688q136 0 200 40q72 56 72 192q0 192 -248 192h-288q-184 0 -312 88q-144 96 -144 280z" />
<glyph unicode="T" horiz-adv-x="1344" d="M56 1072v192h1224v-192h-520v-1152h-184v1152h-520z" />
<glyph unicode="U" horiz-adv-x="1272" d="M56 488v776h184v-776q0 -424 392 -424t392 424v776h184v-776q0 -360 -216 -512q-144 -96 -360 -96t-360 96q-216 152 -216 512z" />
<glyph unicode="V" horiz-adv-x="1504" d="M56 1264h208l488 -1096l480 1096h208l-592 -1344h-200z" />
<glyph unicode="W" horiz-adv-x="1848" d="M56 1264h192l272 -1000l272 1000h248l272 -1000l272 1000h192l-360 -1344h-208l-288 1072l-296 -1072h-208z" />
<glyph unicode="X" horiz-adv-x="1480" d="M56 -80l560 720l-488 624h240l368 -472l368 472h240l-488 -624l560 -720h-240l-440 568l-440 -568h-240z" />
<glyph unicode="Y" horiz-adv-x="1448" d="M56 1264h232l432 -616l432 616h232l-568 -808v-536h-192v536z" />
<glyph unicode="Z" horiz-adv-x="1288" d="M56 1072v192h1160v-200l-888 -952h896v-192h-1160v192l896 960h-904z" />
<glyph unicode="[" horiz-adv-x="640" d="M80 -248v1688h480v-168h-304v-1344h304v-176h-480z" />
<glyph unicode="\" horiz-adv-x="568" d="M16 1408l168 40l368 -1664l-160 -40z" />
<glyph unicode="]" horiz-adv-x="640" d="M80 -72h312v1344h-312v168h480v-1688h-480v176z" />
<glyph unicode="^" horiz-adv-x="960" d="M48 688l352 800h144l352 -800h-176l-248 600l-240 -600h-184z" />
<glyph unicode="_" horiz-adv-x="1136" d="M-24 -280h1192v-128h-1192v128z" />
<glyph unicode="`" horiz-adv-x="680" d="M88 1472h240l136 -280h-144z" />
<glyph unicode="a" horiz-adv-x="1024" d="M48 224q0 160 128 248q88 56 192 56h408q-24 160 -248 160h-464v192h464q216 0 328 -112t112 -304v-544h-600q-104 0 -192 56q-128 80 -128 248zM232 224q0 -56 40 -88t96 -32h416v232h-416q-56 0 -96 -24q-40 -32 -40 -88z" />
<glyph unicode="b" horiz-adv-x="1032" d="M48 -80v1344h184v-392h296q176 0 304 -112q144 -136 144 -360t-144 -360q-128 -120 -304 -120h-480zM232 112h296q96 0 168 64q88 80 88 224t-88 224q-72 64 -168 64h-296v-576z" />
<glyph unicode="c" horiz-adv-x="992" d="M48 392q0 232 136 368q128 112 304 112h448v-184h-440q-104 0 -176 -72q-88 -80 -88 -224q0 -136 88 -216q72 -64 176 -64h440v-192h-448q-168 0 -304 120q-136 128 -136 352z" />
<glyph unicode="d" horiz-adv-x="1032" d="M48 400q0 224 144 360q120 112 296 112h296v392h192v-1344h-488q-168 0 -296 120q-144 136 -144 360zM232 400q0 -144 88 -224q72 -64 176 -64h288v576h-288q-104 0 -176 -64q-88 -80 -88 -224z" />
<glyph unicode="e" horiz-adv-x="1016" d="M48 408q0 200 104 336q128 176 368 176t352 -200q88 -136 88 -312v-96h-720q16 -112 88 -160q72 -40 224 -40h384v-192h-384q-504 0 -504 488zM240 504h520q-48 224 -240 224q-232 0 -280 -224z" />
<glyph unicode="f" horiz-adv-x="880" d="M48 688v192h224v32q0 152 88 248q96 104 272 104h192v-192h-192q-176 0 -176 -160v-32h368v-192h-368v-768h-184v768h-224z" />
<glyph unicode="g" horiz-adv-x="1024" d="M48 432q0 168 96 288q128 152 376 152h448v-936q0 -312 -384 -312h-424v192h424q192 0 192 176h-256q-248 0 -376 152q-96 120 -96 288zM232 432q0 -96 64 -168q72 -88 240 -88h240v512h-240q-168 0 -240 -88q-64 -64 -64 -168z" />
<glyph unicode="h" horiz-adv-x="928" d="M48 -80v1344h184v-392h224q416 0 416 -408v-544h-184v544q0 120 -40 168q-56 56 -192 56h-224v-768h-184z" />
<glyph unicode="i" horiz-adv-x="560" d="M184 -80v952h192v-952h-192zM184 1072v192h192v-192h-192z" />
<glyph unicode="j" horiz-adv-x="640" d="M8 -208h88q160 0 208 32q64 48 64 232v824h184v-824q0 -272 -128 -368q-96 -64 -304 -64h-112v168zM368 1072v192h192v-192h-192z" />
<glyph unicode="k" horiz-adv-x="1032" d="M48 -80v1344h184v-728l432 336h304l-536 -416l552 -536h-272l-480 472v-472h-184z" />
<glyph unicode="l" horiz-adv-x="296" d="M48 -80v1344h184v-1344h-184z" />
<glyph unicode="m" horiz-adv-x="1440" d="M48 -80v952h864q472 0 472 -448v-504h-192v504q0 152 -72 208q-64 56 -208 56h-104v-768h-192v768h-384v-768h-184z" />
<glyph unicode="n" horiz-adv-x="968" d="M48 -80v952h392q232 0 344 -96q136 -120 136 -400v-456h-192v456q0 192 -72 256q-56 56 -216 56h-208v-768h-184z" />
<glyph unicode="o" horiz-adv-x="1136" d="M48 400q0 216 144 368q152 152 368 152t368 -152t152 -368t-152 -368t-368 -152t-368 152q-144 152 -144 368zM232 400q0 -136 96 -232t232 -96t232 96q104 96 104 232t-104 232q-96 96 -232 96t-232 -96t-96 -232z" />
<glyph unicode="p" horiz-adv-x="1016" d="M48 -408v1280h456q200 0 328 -136q128 -128 128 -336t-128 -344t-328 -136h-272v-328h-184zM232 104h272q112 0 192 80q72 80 72 216q0 128 -72 208t-192 80h-272v-584z" />
<glyph unicode="q" horiz-adv-x="1016" d="M48 400q0 208 128 336q128 136 320 136h464v-1280h-192v328h-272q-192 0 -320 136t-128 344zM232 400q0 -136 80 -216q72 -80 184 -80h272v584h-272q-112 0 -184 -80q-80 -80 -80 -208z" />
<glyph unicode="r" horiz-adv-x="744" d="M48 -80v952h328q312 0 312 -344v-136h-184v136q0 160 -144 160h-128v-768h-184z" />
<glyph unicode="s" horiz-adv-x="1000" d="M48 600q0 152 120 224q88 48 216 48h496v-184h-496q-152 0 -152 -88q0 -64 64 -80q24 -8 112 -8h200q152 0 248 -80q88 -72 88 -216q0 -296 -368 -296h-488v192h488q104 0 144 24t40 80q0 104 -152 104h-200q-360 0 -360 280z" />
<glyph unicode="t" horiz-adv-x="848" d="M48 688v184h232v392h184v-392h328v-184h-328v-400q0 -104 24 -136q24 -40 96 -40h200v-192h-200q-304 0 -304 368v400h-232z" />
<glyph unicode="u" horiz-adv-x="992" d="M48 384v488h184v-488q0 -168 88 -232q64 -40 200 -40h232v760h184v-952h-416q-472 0 -472 464z" />
<glyph unicode="v" horiz-adv-x="1184" d="M48 872h208l328 -688l336 688h208l-456 -952h-168z" />
<glyph unicode="w" horiz-adv-x="1528" d="M48 872h192l184 -648l256 648h160l256 -648l184 648h192l-264 -952h-200l-248 640l-256 -640h-192z" />
<glyph unicode="x" horiz-adv-x="1200" d="M48 -80l424 512l-376 440h248l248 -296l248 296h248l-376 -440l432 -512h-248l-304 368l-304 -368h-240z" />
<glyph unicode="y" horiz-adv-x="944" d="M48 408v464h184v-464q0 -136 56 -184q48 -32 168 -32h240v680h192v-816q0 -232 -104 -328q-96 -104 -320 -104h-392v192h392q112 0 168 40q48 40 48 144h-224q-408 0 -408 408z" />
<glyph unicode="z" horiz-adv-x="968" d="M48 -80v192l608 576h-608v184h856v-208l-592 -552h600v-192h-864z" />
<glyph unicode="{" horiz-adv-x="680" d="M56 448v168q80 0 128 40t64 108t16 236t8 216q8 88 32 140t60 80t92 44q40 8 128 8h56v-152h-32q-104 0 -140 -40t-36 -168q0 -264 -8 -328q-16 -112 -60 -168t-140 -104q112 -40 160 -136t48 -312q0 -192 8 -232q8 -64 40 -92t128 -28h32v-160h-56q-104 0 -144 16 q-64 24 -108 76t-56 132t-12 260t-16 248t-64 108t-128 40z" />
<glyph unicode="|" horiz-adv-x="528" d="M184 -432v1920h152v-1920h-152z" />
<glyph unicode="}" horiz-adv-x="680" d="M40 -272h32q104 0 136 36t32 172q0 248 8 312q16 112 64 180t136 100q-112 56 -160 148t-48 308v232q-8 64 -40 92t-128 28h-32v152h56q96 0 144 -16q64 -16 104 -68t52 -132t16 -260t20 -248t64 -108t120 -40v-168q-72 0 -120 -40t-64 -108t-20 -236t-4 -224 q-8 -80 -36 -132t-64 -80t-92 -44q-32 -16 -120 -16h-56v160z" />
<glyph unicode="~" horiz-adv-x="1192" d="M80 560v200q104 120 280 120q56 0 124 -16t188 -72q72 -24 104 -32t72 -8q64 0 132 36t124 100v-216q-64 -56 -132 -84t-148 -28q-56 0 -112 12t-176 68t-192 56q-64 0 -124 -28t-140 -108z" />
<glyph unicode="&#xa4;" d="M504 1088l144 144l160 -160q88 64 224 72q128 -16 208 -64l160 160l144 -144l-168 -160q64 -80 64 -192q0 -136 -72 -240l160 -152l-128 -136l-160 160q-80 -64 -208 -72q-136 0 -224 72l-160 -160l-136 136l160 152q-8 0 -16 16q-64 112 -56 224q0 104 64 192zM808 728 q8 -208 216 -216q192 8 216 216q-32 192 -216 208q-208 -16 -216 -208z" />
<glyph unicode="&#xa7;" d="M608 712q0 168 200 264q-176 64 -176 248q24 248 392 288q168 0 336 -64v-224q-16 0 -24 8q-184 72 -272 72q-120 0 -112 -88q0 -88 192 -152q280 -88 288 -272q-8 -184 -184 -264q192 -104 192 -256q-24 -272 -448 -288q-168 8 -336 48v224q168 -88 304 -80 q160 -8 160 96q0 80 -160 120q-368 96 -352 320zM888 736q0 -96 128 -136q120 40 136 152q-16 128 -152 152q-96 -32 -112 -168z" />
<glyph unicode="&#xa8;" d="M744 1232v248h208v-248h-208zM1096 1232v248h208v-248h-208z" />
<glyph unicode="&#xad;" horiz-adv-x="680" d="M80 312v168h512v-168h-512z" />
<glyph unicode="&#xb0;" d="M104 1176q24 280 304 312q280 -32 312 -312q-32 -280 -312 -304q-280 24 -304 304zM248 1176q8 -152 160 -160q152 16 168 160q-24 144 -168 168q-160 -24 -160 -168z" />
<glyph unicode="&#xb1;" d="M528 0v248h992v-248h-992zM552 544v248h352v200h240v-200h352v-248h-352v-192h-240v192h-352z" />
<glyph unicode="&#xb7;" d="M832 712q16 184 200 200q168 -24 192 -200q-24 -176 -192 -192q-184 16 -200 192z" />
<glyph unicode="&#xd7;" d="M528 152l320 320l-320 328l176 168l320 -320l320 320l176 -168l-320 -328l320 -320l-176 -160l-320 312l-320 -312z" />
<glyph unicode="&#xe0;" d="M488 512q24 512 480 544q160 -16 272 -144h8v136h304v-840v-112q8 -72 8 -96h-304q-16 72 -8 144h-8q-96 -152 -312 -160q-416 16 -440 528zM768 1472h280l168 -296h-168zM800 512q-8 -344 224 -336q200 8 224 336q-24 328 -224 344q-232 0 -224 -344z" />
<glyph unicode="&#xe1;" d="M488 512q24 512 480 544q160 -16 272 -144h8v136h304v-840v-112q8 -72 8 -96h-304q-16 72 -8 144h-8q-96 -152 -312 -160q-416 16 -440 528zM800 512q-8 -344 224 -336q200 8 224 336q-24 328 -224 344q-232 0 -224 -344zM848 1176l288 296h160l-168 -296h-280z" />
<glyph unicode="&#xe8;" d="M528 512q24 512 496 544q320 0 440 -240q32 -96 48 -184v-88q8 -40 8 -112h-672q-16 -264 176 -256q152 -8 184 128h280q-40 -312 -464 -320q-504 0 -496 528zM688 1480h280l168 -296h-168zM848 640h352q0 216 -176 216q-184 0 -176 -216z" />
<glyph unicode="&#xe9;" d="M528 512q24 512 496 544q320 0 440 -240q32 -96 48 -184v-88q8 -40 8 -112h-672q-16 -264 176 -256q152 -8 184 128h280q-40 -312 -464 -320q-504 0 -496 528zM848 640h352q0 216 -176 216q-184 0 -176 -216zM856 1176l280 296h160l-168 -296h-272z" />
<glyph unicode="&#xea;" d="M528 512q24 512 496 544q320 0 440 -240q32 -96 48 -184v-88q8 -40 8 -112h-672q-16 -264 176 -256q152 -8 184 128h280q-40 -312 -464 -320q-504 0 -496 528zM688 1184l216 296h216l208 -296h-176l-144 176l-144 -176h-176zM848 640h352q0 216 -176 216 q-184 0 -176 -216z" />
<glyph unicode="&#xec;" d="M784 1480h280l168 -296h-168zM952 0v1032h312v-1032h-312z" />
<glyph unicode="&#xed;" d="M784 0v1032h312v-1032h-312zM816 1176l280 296h168l-176 -296h-272z" />
<glyph unicode="&#xf2;" d="M488 512q16 520 536 544q512 -24 536 -544q-24 -512 -536 -528q-520 16 -536 528zM704 1480h272l168 -296h-160zM808 512q-8 -344 216 -336q216 -8 216 336q8 344 -216 344q-232 0 -216 -344z" />
<glyph unicode="&#xf3;" d="M488 512q16 520 536 544q512 -24 536 -544q-24 -512 -536 -528q-520 16 -536 528zM808 512q-8 -344 216 -336q216 -8 216 336q8 344 -216 344q-232 0 -216 -344zM904 1176l280 296h160l-168 -296h-272z" />
<glyph unicode="&#xf7;" d="M528 352v248h992v-248h-992zM904 -8v232h240v-232h-240zM904 728v240h240v-240h-240z" />
<glyph unicode="&#xf9;" d="M528 360v672h304v-624q0 -232 184 -232q168 16 184 232v624h312v-848q-8 -96 8 -184h-304l-16 128q-104 -144 -312 -144q-280 16 -344 216q-24 64 -16 160zM704 1480h272l176 -296h-168z" />
<glyph unicode="&#xfa;" d="M528 360v672h304v-624q0 -232 184 -232q168 16 184 232v624h312v-848q-8 -96 8 -184h-304l-16 128q-104 -144 -312 -144q-280 16 -344 216q-24 64 -16 160zM904 1176l280 296h160l-168 -296h-272z" />
<glyph unicode="&#xfc;" d="M528 360v672h304v-624q0 -232 184 -232q168 16 184 232v624h312v-848q-8 -96 8 -184h-304l-16 128q-104 -144 -312 -144q-280 16 -344 216q-24 64 -16 160zM744 1232v248h208v-248h-208zM1096 1232v248h208v-248h-208z" />
<glyph unicode="&#x2000;" horiz-adv-x="820" vert-adv-y="0" />
<glyph unicode="&#x2001;" horiz-adv-x="1640" vert-adv-y="0" />
<glyph unicode="&#x2002;" horiz-adv-x="820" vert-adv-y="0" />
<glyph unicode="&#x2003;" horiz-adv-x="1640" vert-adv-y="0" />
<glyph unicode="&#x2004;" horiz-adv-x="546" vert-adv-y="0" />
<glyph unicode="&#x2005;" horiz-adv-x="410" vert-adv-y="0" />
<glyph unicode="&#x2006;" horiz-adv-x="273" vert-adv-y="0" />
<glyph unicode="&#x2007;" horiz-adv-x="273" vert-adv-y="0" />
<glyph unicode="&#x2008;" horiz-adv-x="205" vert-adv-y="0" />
<glyph unicode="&#x2009;" horiz-adv-x="328" vert-adv-y="0" />
<glyph unicode="&#x200a;" horiz-adv-x="91" vert-adv-y="0" />
<glyph unicode="&#x2010;" horiz-adv-x="680" d="M80 312v168h512v-168h-512z" />
<glyph unicode="&#x2011;" horiz-adv-x="680" d="M80 312v168h512v-168h-512z" />
<glyph unicode="&#x2012;" horiz-adv-x="680" d="M80 312v168h512v-168h-512z" />
<glyph unicode="&#x2013;" horiz-adv-x="1192" d="M80 312v168h1024v-168h-1024z" />
<glyph unicode="&#x2014;" d="M0 616v168h2048v-168h-2048z" />
<glyph unicode="&#x2018;" d="M1384 992v296q40 280 280 328v-128q-96 -48 -104 -120v-56h128v-320h-304z" />
<glyph unicode="&#x2019;" d="M360 1296v320h304v-296q-32 -288 -280 -328v128q80 8 104 120v56h-128z" />
<glyph unicode="&#x201c;" d="M1152 1016v296q40 280 280 328v-128q-96 -48 -104 -120v-56h128v-320h-304zM1624 1016v296q24 264 280 328v-128q-40 -24 -64 -48q-48 -56 -40 -72v-56h128v-320h-304z" />
<glyph unicode="&#x201d;" d="M128 1320v320h304v-296q-32 -288 -280 -328v128q80 8 104 120v56h-128zM592 1320v320h304v-296q-32 -280 -280 -328v128q32 8 64 48t40 72v56h-128z" />
<glyph unicode="&#x2026;" d="M176 704q8 128 152 144q136 -16 152 -144q-8 -152 -144 -152q-160 0 -160 152zM864 704q8 128 152 144q136 -16 152 -144q-8 -152 -144 -152q-160 0 -160 152zM1568 704q8 128 152 144q136 -16 152 -144q-8 -152 -144 -152q-160 0 -160 152z" />
<glyph unicode="&#x202f;" horiz-adv-x="328" vert-adv-y="0" />
<glyph unicode="&#x205f;" horiz-adv-x="410" vert-adv-y="0" />
<glyph unicode="&#x25fc;" horiz-adv-x="880" vert-adv-y="1760" d="M0 0v880h880v-880h-880z" />
</font>
</defs>
</svg>
